# xmcd CD database file generated by Grip 2.96
# 
# Track frame offsets:
#       150
#       8952
#       43812
#       53412
#       58614
#       81146
#       87109
#       110927
#       135418
#       152301
#       180947
#       188839
#       212356
#       217217
#       238626
#       261327
# 
# Disc length: 3706 seconds
# 
# Revision: 0
# Processed by: cddbd v1.4PL0 Copyright (c) Steve Scherf et al.
# Submitted via: Grip 2.96
# 
DISCID=d20e7810
DTITLE=John Davis - Dreams of the Lost Tribe
DYEAR=1900
DGENRE=
TTITLE0=Invocation
TTITLE1=Okeefenokee
TTITLE2=Hurricane
TTITLE3=S'il Pleur Tous les Jours
TTITLE4=Eloísa
TTITLE5=The Big Bass Sets Sail
TTITLE6=Dirty Old World
TTITLE7=Waiting
TTITLE8=Bull Gator Blues
TTITLE9=Hobo Supper
TTITLE10=Requiem
TTITLE11=In Remembrance of Steve
TTITLE12=Whip'o'will
TTITLE13=When the Moon Comes Out to Play
TTITLE14=Cajun Flood
TTITLE15=Lullaby for Ruth
EXTD=
EXTT0=
EXTT1=
EXTT2=
EXTT3=
EXTT4=
EXTT5=
EXTT6=
EXTT7=
EXTT8=
EXTT9=
EXTT10=
EXTT11=
EXTT12=
EXTT13=
EXTT14=
EXTT15=
PLAYORDER=
